<?xml version="1.0" encoding="utf-8"?>
<!-- Generator: Adobe Illustrator 25.4.1, SVG Export Plug-In . SVG Version: 6.00 Build 0)  -->
<svg version="1.1" id="Capa_1" xmlns="http://www.w3.org/2000/svg" xmlns:xlink="http://www.w3.org/1999/xlink" x="0px" y="0px"
	 viewBox="0 0 4000 4000" style="enable-background:new 0 0 4000 4000;" xml:space="preserve">
<style type="text/css">
	.st0{fill:url(#SVGID_1_);}
	.st1{fill:none;stroke:#1D1D19;stroke-width:0.5;stroke-linecap:round;stroke-linejoin:round;}
	.st2{fill:url(#SVGID_00000111161471117857181650000008874287497415348138_);}
	.st3{fill:#00AAE6;}
	.st4{fill:url(#SVGID_00000154415358219097987360000000950432104712010413_);}
	.st5{fill:url(#SVGID_00000080187546048067913100000007428919299044684716_);}
	.st6{fill:url(#SVGID_00000080915494984279035640000011859275636825242557_);}
	.st7{fill:#001630;}
	.st8{fill:#000C28;}
	.st9{fill:url(#SVGID_00000012474585635025126550000006984666226631448704_);}
	.st10{fill:url(#SVGID_00000135652297518986943980000011147478890175969213_);}
	.st11{fill:url(#SVGID_00000101071206471393636430000006601806650292057749_);}
	.st12{fill:url(#SVGID_00000071521284048130989020000012508463264477232052_);}
	.st13{fill:url(#SVGID_00000090297060644371771830000010583929609890356107_);}
	.st14{fill:#00081C;}
	.st15{fill:url(#SVGID_00000150795815764103649730000009982554383684358784_);}
	.st16{fill:#001335;}
	.st17{fill:#002441;}
	.st18{fill:#00B4CE;}
	.st19{fill:url(#SVGID_00000048461043874345920890000002145403735974172056_);}
	.st20{fill:#001A48;}
	.st21{fill:#001636;}
	.st22{fill:#00123E;}
	.st23{fill:#001C4B;}
	.st24{fill:#001226;}
</style>
<g id="XMLID_00000052095757296515447230000000036625776780304020_">
	<g>
		<linearGradient id="SVGID_1_" gradientUnits="userSpaceOnUse" x1="1128.1837" y1="3302.6326" x2="1712.0858" y2="3302.6326">
			<stop  offset="0" style="stop-color:#0058B0"/>
			<stop  offset="1" style="stop-color:#00A1CC"/>
		</linearGradient>
		<path class="st0" d="M1712.09,3183.04c-33.41,10.17-67.38,18.35-100.69,28.86c-56.22,17.72-110.44,42.1-160.28,73.66
			c-24.88,15.75-48.7,33.18-71.2,52.19c-23.3,19.68-44.11,41.67-65.74,63.14c-7.2,7.16-14.49,14.22-21.71,21.33
			c-55.02-24.66-111.27-53.13-164.29-85.55c8.1-11.3,26.8-18.93,38.6-25.92c15.96-9.44,32.25-18.3,48.83-26.59
			c73.41-36.68,150.16-54.45,230.04-71.23c44.39-9.32,87.76-13.6,132.85-18.32C1622.94,3189.97,1667.5,3186.1,1712.09,3183.04z"/>
	</g>
	<g>
	</g>
</g>
<path class="st1" d="M1333.24,3184.07c-0.7,0-1.71,0.65-2.75,1.34c3.34-0.85,6.68-1.69,10.02-2.51c2.73-0.68,5.48-1.35,8.24-2
	c0.49-0.12,0.98-0.24,1.48-0.36c0.1-0.02,0.21-0.04,0.31-0.07c0.91-0.22,1.83-0.45,2.73-0.68
	C1346.63,3181.19,1339.95,3182.61,1333.24,3184.07z M1537.11,3146.51c31.27-4.66,62.63-8.85,93.79-14.04
	c0.71-0.12,1.44-0.24,2.15-0.36C1600.47,3136.83,1568.65,3141.55,1537.11,3146.51z M1858.04,2932.61
	c10.83-7.7,21.52-15.65,32.12-23.68c11.52-8.73,22.92-17.61,34.34-26.47c0.83-0.64,1.96-1.63,3.32-2.87L1858.04,2932.61z
	 M1796.05,2972.48l-100.56,49C1729.85,3007.22,1763.87,2990.9,1796.05,2972.48z M1630.9,3132.47c0.71-0.12,1.44-0.24,2.15-0.36
	c-32.58,4.72-64.4,9.44-95.94,14.4C1568.38,3141.85,1599.75,3137.66,1630.9,3132.47z M1330.5,3185.4c3.34-0.85,6.68-1.69,10.02-2.51
	c2.75-0.68,5.49-1.35,8.24-2c0.49-0.12,0.98-0.24,1.48-0.36c0.1-0.02,0.21-0.04,0.31-0.07c0.91-0.22,1.83-0.45,2.73-0.68
	c-6.65,1.41-13.33,2.84-20.04,4.29C1332.54,3184.07,1331.53,3184.72,1330.5,3185.4z M1537.11,3146.51
	c-15.41,2.42-30.74,4.9-46.07,7.45c26.63-4.16,53.31-8.05,79.94-12.07c14.17-2.14,28.33-4.32,42.48-6.58
	c5.82-0.94,11.64-1.89,17.44-2.85c0.71-0.12,1.44-0.24,2.15-0.36C1600.47,3136.83,1568.65,3141.55,1537.11,3146.51z
	 M1353.28,3179.78c-6.65,1.41-13.33,2.84-20.04,4.29c-0.7,0-1.71,0.65-2.75,1.34c3.34-0.85,6.68-1.69,10.02-2.51
	c2.73-0.68,5.48-1.35,8.24-2c0.49-0.12,0.98-0.24,1.48-0.36c0.1-0.02,0.21-0.04,0.31-0.07c1.42-0.34,2.86-0.67,4.3-1.01
	C1354.33,3179.55,1353.8,3179.67,1353.28,3179.78z M1121.99,3243.19c-0.04,0.03-0.07,0.04-0.12,0.06c-0.21,0.1-0.4,0.22-0.61,0.33
	c-0.43,0.24-0.86,0.48-1.29,0.7c-3.25,1.71-8.52,4.54-16.45,8.91c-0.58,0.33-1.17,0.64-1.75,0.95
	C1105.19,3253.12,1131.89,3238.04,1121.99,3243.19z M2569.38,951.05c-5.58-0.46-11.13-1.08-16.67-1.8
	c-6.87-0.88-13.73-1.89-20.6-2.84c3.19,0.86,6.52,2,9.28,2c26.72,2.97,51.95,4.45,77.18,7.42c34,3.01,67.67,4.99,101.21,6
	C2669.44,960.12,2619.57,955.13,2569.38,951.05z M2460.28,937.51c4.05,0.58,8.12,1.13,12.19,1.68
	C2470.69,938.93,2461.39,936.51,2460.28,937.51z"/>
<linearGradient id="SVGID_00000157290804937867201410000002913548497684341399_" gradientUnits="userSpaceOnUse" x1="2065.2195" y1="2160.8179" x2="2065.2195" y2="3165.0955">
	<stop  offset="0" style="stop-color:#002A58"/>
	<stop  offset="0.9948" style="stop-color:#0067B0"/>
</linearGradient>
<path style="fill:url(#SVGID_00000157290804937867201410000002913548497684341399_);" d="M2626.74,2642.4
	c-5.49,35.48-15.01,70.32-28.41,103.65c-5.14,12.78-9.5,25.89-15.01,38.54c-5.52,12.66-12.01,24.98-18.66,37.1
	c-9.17,16.71-19.15,33.01-29.86,48.78c-21.37,31.43-45.76,60.76-72.67,87.57c-27.24,27.12-57.05,51.63-88.8,73.29
	c-12.94,8.83-26.21,17.19-39.75,25.07l-4.45,4.45c-34.14,19.3-68.27,35.63-103.89,51.96c-26.72,10.39-54.92,19.3-83.12,28.21
	c-96.47,26.72-191.46,29.69-289.42,16.33c-67.28-8.21-132.3-20.5-197.04-33.37c-52.38-10.39-104.59-21.17-157.68-30.46
	c13.89-4.97,27.8-9.95,41.69-14.92c37.27-13.35,74.54-26.66,111.79-40.01l0.85-0.31l32.82-11.74l10.36-5.05
	c34.36-14.27,68.38-30.58,100.56-49l26.48-12.9l35.52-26.97c10.83-7.7,21.52-15.65,32.12-23.68c11.52-8.73,22.92-17.61,34.34-26.47
	c0.83-0.64,1.96-1.63,3.32-2.87l28.39-21.57c39.69,2.97,79.57,2.42,118.62-2.94c14.81-2.03,29.49-4.77,44.01-8.27
	c59.67-10.21,114.73-24.51,165.65-58.88c33.32-22.49,62.66-50.84,86.35-83.32c26.15-35.87,35.95-73.13,35.8-117.38
	c-0.18-55.8-13.52-108.44-49.9-151.61c-33.6-39.86-76.82-71.63-125.03-91.49c-0.04-0.22-0.1-0.45-0.16-0.67
	c-4.66-17.95-11.4-35.38-19.61-52c-24.79-50.15-62.11-93.29-103.45-130.59c113.04-1.69,235.44,32.09,328.72,96.88
	c65.99,45.83,119.95,106.2,174.02,165c0.92,3.06,1.8,6.12,2.64,9.19c9.39,34.11,15.35,69.19,17.57,104.52
	C2633.69,2571.82,2632.16,2607.4,2626.74,2642.4z"/>
<path class="st3" d="M1956.02,2858.01c-5.45,0-20.44,14.59-28.19,21.58c-1.37,1.23-2.49,2.23-3.32,2.87
	c-11.43,8.86-22.83,17.74-34.34,26.47c-10.6,8.03-21.28,15.97-32.12,23.68c-12.62,9-25.45,17.7-38.6,25.9
	c-7.67,4.78-15.48,9.44-23.39,13.97c-32.18,18.42-66.2,34.74-100.56,49c-12.32,5.11-24.7,9.96-37.03,14.55
	c-2.05,0.76-4.1,1.5-6.14,2.24l-0.85,0.31l-111.79,40.01c-13.89,4.97-27.8,9.95-41.69,14.92c-0.49-0.01-0.98-0.03-1.47-0.06
	c-46.8-1.77-93.8-9.55-140.69-13.41c-50.17-4.14-100.51-6.46-150.84-5.64c-52.79,0.86-105.6,5.2-157.64,14.39
	c-49.54,8.74-97.93,23.2-145.93,37.47c-47.55-80.65-62.32-173.79-21.74-280.2c48.92-128.32,186.34-196.95,313.02-224.44
	c47.79-10.38,68.29,22.5,109.91,46.39c91.72,52.65,196.57,76.08,297.32,104.91c93.37,26.71,185.54,58.77,281.18,75.59
	C1905.8,2852.86,1930.87,2856.16,1956.02,2858.01z"/>
<linearGradient id="SVGID_00000151537649501067446000000011787695674670850743_" gradientUnits="userSpaceOnUse" x1="1897.1814" y1="2064.208" x2="1897.1814" y2="3336.6721">
	<stop  offset="0" style="stop-color:#00606A"/>
	<stop  offset="0.4665" style="stop-color:#000B33"/>
	<stop  offset="1" style="stop-color:#000D2C"/>
</linearGradient>
<path style="fill:url(#SVGID_00000151537649501067446000000011787695674670850743_);" d="M2892.94,2626.65v0.01
	c-4.97,26.23-11.87,52.22-20.57,77.91c-28.2,80.16-66.79,151.42-123.19,218.22c-72.73,86.1-158.81,146.96-259.74,190.02
	c-2.97,1.48-4.45,0-7.42,1.48c-31.17,14.84-65.3,23.75-97.96,35.63c-13.36,4.45-26.72,5.94-40.07,8.91
	c-35.62,10.39-71.24,13.36-106.86,16.33c-48.98,4.45-97.96,4.45-146.94,1.48c-75.69-2.97-149.9-1.48-225.6-1.48
	c-50.46,1.48-102.41,4.45-152.5,7.88c-44.59,3.06-89.14,6.93-133.58,11.58c-45.09,4.72-88.46,9-132.85,18.32
	c-79.88,16.77-156.63,34.54-230.04,71.23c-16.58,8.28-32.88,17.15-48.83,26.59c-11.8,6.99-30.5,14.62-38.6,25.92
	c-93.86-57.39-177.62-127.18-226.64-210.2c-0.04-0.07-0.07-0.13-0.12-0.21c48-14.27,96.38-28.73,145.93-37.47
	c52.04-9.19,104.84-13.52,157.64-14.39c50.33-0.82,100.67,1.5,150.84,5.64c46.89,3.86,93.89,11.64,140.69,13.41
	c0.49,0.03,0.98,0.04,1.47,0.06c-71.24,20.78-142.48,40.08-210.76,68.29c-31.17,13.36-60.85,26.72-90.54,41.57
	c-25.59,12.8-50.26,26.5-74.7,39.83c-0.04,0.03-0.07,0.04-0.12,0.06c-0.21,0.1-0.4,0.22-0.61,0.33c-0.43,0.24-0.86,0.48-1.29,0.7
	c-3.25,1.71-8.52,4.54-16.45,8.91c-0.58,0.33-1.17,0.64-1.75,0.95c54.35-14.09,106.45-33.39,160.65-49.75
	c4.84-1.44,9.68-2.86,14.53-4.29c23.11-6.78,46.47-12.6,69.77-18.66c1.17-0.3,2.33-0.59,3.5-0.91c0.1-0.02,0.21-0.04,0.31-0.07
	c0.91-0.22,1.83-0.45,2.73-0.68c16.33-4.02,32.82-7.45,49.39-10.55c0.45-0.09,0.89-0.18,1.34-0.25c28.14-5.24,56.49-9.6,84.54-14.61
	c0.09-0.01,0.16-0.03,0.25-0.04c16.04-2.86,32.18-5.39,48.31-7.81c31.27-4.66,62.63-8.85,93.79-14.04c0.71-0.12,1.44-0.24,2.15-0.36
	c8.34-1.4,15.38-5.39,22.62-8.14c64.74,12.87,129.76,25.16,197.04,33.37c97.96,13.36,192.95,10.39,289.42-16.33
	c28.2-8.91,56.4-17.81,83.12-28.21c35.62-16.33,69.76-32.66,103.89-51.96l4.45-4.45c13.54-7.88,26.8-16.24,39.75-25.07
	c31.75-21.66,61.56-46.17,88.8-73.29c26.91-26.81,51.29-56.14,72.67-87.57c10.72-15.77,20.69-32.07,29.86-48.78
	c6.65-12.11,13.14-24.44,18.66-37.1c5.51-12.65,9.87-25.76,15.01-38.54c13.4-33.33,22.92-68.17,28.41-103.65
	c5.42-35,6.95-70.59,4.72-105.93c-2.23-35.33-8.18-70.41-17.57-104.52c-0.85-3.07-1.72-6.13-2.64-9.19
	c-9.38-31.69-21.91-62.13-36.68-91.73c-1.07-2.14-2.15-4.28-3.25-6.4c-0.49-0.95-0.99-1.9-1.5-2.85c-0.83-1.6-1.68-3.19-2.54-4.78
	c-0.12-0.25-0.25-0.49-0.39-0.71c-0.92-1.71-1.84-3.41-2.79-5.11c-0.62-1.13-1.26-2.26-1.9-3.37c-0.67-1.22-1.37-2.42-2.06-3.61
	c-0.49-0.89-1.01-1.77-1.53-2.63c-0.65-1.16-1.34-2.3-2.02-3.43c-0.61-1.04-1.23-2.08-1.86-3.1c-0.74-1.23-1.5-2.46-2.26-3.68
	c-0.59-0.99-1.2-1.97-1.83-2.94c-3.59-5.76-7.32-11.43-11.15-17.01c-0.74-1.1-1.5-2.18-2.26-3.28c-0.31-0.46-0.64-0.91-0.96-1.37
	c-0.77-1.11-1.56-2.23-2.36-3.34c-2.2-3.09-4.44-6.16-6.71-9.19c-0.8-1.05-1.59-2.11-2.39-3.15c-0.85-1.13-1.72-2.27-2.6-3.38
	c-1.4-1.81-2.82-3.62-4.24-5.4c-0.04-0.06-0.09-0.12-0.13-0.16c-1.42-1.78-2.85-3.56-4.3-5.33c0,0-0.01,0-0.01-0.01
	c-78.99-96.25-192.19-160.04-319.46-172.04c-1.93-0.18-3.87-0.37-5.8-0.55c39.94,0.55,80.01,5,121.57,7.97
	c4.45,0,10.39,2.97,14.84,2.97c114.28,10.39,222.63,40.08,325.04,90.55c2.97,1.48,5.94,5.94,10.39,7.42
	c68.27,35.63,121.71,84.62,163.26,151.42c14.84,25.24,26.72,48.99,37.11,75.71c7.42,22.27,13.36,43.05,17.81,65.32
	c8.91,53.44,10.39,105.4,14.49,159L2892.94,2626.65z"/>
<linearGradient id="SVGID_00000048474317101889883790000018157094566315166863_" gradientUnits="userSpaceOnUse" x1="1607.6506" y1="998.0541" x2="1607.6506" y2="2052.2134">
	<stop  offset="0" style="stop-color:#004F58"/>
	<stop  offset="1" style="stop-color:#00091E"/>
</linearGradient>
<path style="fill:url(#SVGID_00000048474317101889883790000018157094566315166863_);" d="M2062.67,2017.46l-3.1,34.75
	c-40.3-3.83-80.4-7.84-120.43-12.31c-116.2-12.96-231.91-29.88-350.61-58.28c-84.38-18.87-163.44-47.7-232.75-93.58
	c-34.33-22.73-66.25-49.63-95.26-81.59c-1.48-1.48-1.48-4.45-2.97-5.94c-17.81-19.3-32.65-40.08-44.53-62.35l-4.45-4.45
	c-53.22-99.28-61.83-209.71-52.85-319.14l2.92-12.31c11.95-42.75,25.78-85.11,44.23-125.54c18.37-40.3,41.5-78.34,69.4-112.78
	c27.41-33.85,59.58-64.01,96.81-86.83c40.1-24.57,84.73-43.99,129.42-58.52c22.31-7.26,45.15-13.03,68.38-16.51
	c22.14-3.33,45.8-5.48,68.16-2.91l6.47,1.04c-16.95,12.94-33.1,26.97-48.71,41.54c-30.38,28.34-58.91,58.86-82.77,92.87
	c-34.06,48.5-58.08,103.26-79.98,158.32c-15.39,38.69-15.01,72.65-15.01,113.43c-7.36,62.7-0.22,127.18,17.65,189.27
	c34.14,114.31,103.89,207.83,200.37,282.05c7.42,5.94,14.84,10.39,22.26,14.84c68.27,47.5,135.06,77.19,213.73,95.01
	c1.48,0,4.45,2.97,5.94,2.97c62.34,14.84,123.19,22.27,185.53,26.72C2061.23,2017.33,2061.94,2017.39,2062.67,2017.46z"/>
<linearGradient id="SVGID_00000017515604425283082870000013321954441328810411_" gradientUnits="userSpaceOnUse" x1="1943.6947" y1="899.934" x2="1943.6947" y2="2065.7371">
	<stop  offset="0" style="stop-color:#00B0A1"/>
	<stop  offset="0.1598" style="stop-color:#008891"/>
	<stop  offset="0.5026" style="stop-color:#00B8AB"/>
	<stop  offset="0.7938" style="stop-color:#006A83"/>
	<stop  offset="1" style="stop-color:#00798D"/>
</linearGradient>
<path style="fill:url(#SVGID_00000017515604425283082870000013321954441328810411_);" d="M2475.22,2065.74
	c-134.26-30.08-273.73-35-412.55-48.28c-0.73-0.07-1.44-0.13-2.17-0.21c-62.34-4.45-123.19-11.88-185.53-26.72
	c-1.48,0-4.45-2.97-5.94-2.97c-78.66-17.81-145.45-47.5-213.73-95.01c-7.42-4.45-14.84-8.91-22.26-14.84
	c-96.47-74.22-166.23-167.75-200.37-282.05c-17.87-62.1-25.01-126.57-17.65-189.27c4.26-36.24,13.36-71.89,28.04-106.14
	c1.48-2.97,0-4.45,1.48-7.42c38.71-93.32,98.66-172.02,173.18-237.91l2.57-1.17c47.6-20.71,91.46-49.17,140.32-68.32
	c51.62-20.22,105.01-35.82,159.14-47.77c102.57-22.64,207.6-32.27,312.5-37.39l9.5-0.33c0.68,0.1,1.37,0.21,2.05,0.33
	c4.2,0.7,8.4,1.41,12.62,2.14c69.64,12.35,135.88,25.56,203.86,35.11c-45.95,41.33-93.88,80.47-143.54,117.26
	c-48.98,36.28-102.57,66.65-154.74,98.12c-19.77,11.92-39.48,23.93-58.97,36.31c-36.39-5.89-72.34-9.56-109-7.47
	c-0.71,0.04-1.44,0.09-2.15,0.12c-25.84,1.56-51.61,2.45-77.33,6.15c-14.35,2.06-28.63,4.68-42.77,7.85
	c-7.39,1.65-14.74,3.44-22.04,5.4c-3.25,0.86-6.69,2.12-10.17,3.24c-0.73,0.15-1.45,0.3-2.18,0.45c-0.88,0.18-1.74,0.37-2.6,0.56
	c-0.85,0.18-1.71,0.37-2.55,0.58c-0.91,0.21-1.8,0.43-2.67,0.64c-0.19,0.06-0.39,0.1-0.58,0.16c-0.01,0-0.01,0-0.03,0
	c-0.01,0-0.01,0-0.03,0c-0.61,0.16-1.23,0.31-1.84,0.49c-0.68,0.18-1.37,0.36-2.05,0.56c-1.87,0.5-3.73,1.05-5.58,1.63
	c-129.62,40.44-198.28,193.18-161.65,319.24c28.17,96.91,100.17,183.11,172.47,251.13c167.33,157.42,391.27,223.77,610.19,275.88
	L2475.22,2065.74z"/>
<path class="st7" d="M3011.76,821.82c-43.92,28.34-87.05,55.91-134.44,78.32c-47.36,22.4-96.22,41.45-144.78,61.04l-2.69,0.95
	c-3.35-0.09-6.72-0.19-10.08-0.3c-50.33-1.72-100.2-6.71-150.39-10.79c-5.58-0.46-11.13-1.08-16.67-1.8l4.63-1.54
	c24.39-8.92,48.56-18.35,72.43-28.56c42.34-18.11,83.71-38.69,122.88-62.96c27.55-17.07,54.77-35.67,79.48-56.97
	c16.18-13.92,31.27-29.01,44.69-45.56c4.53-5.58,9.07-11.18,13.6-16.76c0.92,0.61,1.83,1.22,2.75,1.84
	C2932.92,765.54,2972.21,793.45,3011.76,821.82z"/>
<path class="st8" d="M3132.04,919.35l-17.07,6.12c-18.52,5.31-37.28,9.75-56.21,13.43c-46.05,8.97-93.79,14.99-140.39,18.42
	c-63.52,4.68-125.88,6.4-188.52,4.81l2.69-0.95c48.56-19.6,97.42-38.64,144.78-61.04c47.39-22.42,90.52-49.98,134.44-78.32
	c14.72,10.55,29.49,21.18,44.35,31.84C3084.9,874.33,3111.14,894.93,3132.04,919.35z"/>
<linearGradient id="SVGID_00000182504939189219026290000001687771729988917677_" gradientUnits="userSpaceOnUse" x1="1833.2477" y1="464.5893" x2="1833.2477" y2="2382.7954">
	<stop  offset="2.577320e-03" style="stop-color:#9DD32F"/>
	<stop  offset="0.3376" style="stop-color:#1BC3C5"/>
	<stop  offset="1" style="stop-color:#008CD8"/>
</linearGradient>
<path style="fill:url(#SVGID_00000182504939189219026290000001687771729988917677_);" d="M2890.41,736.89
	c-2.05,1.17-4.11,2.35-6.17,3.52c-50.82,29.02-107.34,48.31-163.49,64.55c-59.62,17.25-120.59,29.66-182.07,38.17
	c-61.56,8.54-123.66,13.15-185.79,14.74c-127.64,2.97-256.77,0-384.41,1.48c-114.28,2.97-225.6,4.45-339.88,31.17
	c-68.27,16.33-126.16,41.57-187.01,75.71l-4.45,4.45c-16.33,7.42-29.68,17.81-46.01,29.69c-40.07,29.69-74.21,57.9-106.86,95.01
	c-1.48,1.48-1.48,4.45-2.97,5.94c-17.81,19.3-34.14,38.6-46.01,62.35l-4.45,4.45c-43.04,74.22-65.31,152.9-74.21,236.03
	c-0.33,3.47-0.62,6.95-0.91,10.42c-8.98,109.42-0.37,219.85,52.85,319.14l4.45,4.45c11.87,22.27,26.72,43.05,44.53,62.35
	c1.48,1.48,1.48,4.45,2.97,5.94c29,31.96,60.93,58.86,95.26,81.59c25.83,58.04,77.83,99.36,132.97,127.59
	c57.08,29.23,117.22,52.86,176.49,77.24c60.23,24.78,120.65,49.06,180.91,73.78c59.71,24.49,119.24,49.42,178.19,75.66
	c43.44,19.34,86.56,39.41,129.17,60.54c26.36,13.08,52.39,26.23,78.05,40.62c0.06,0.22,0.12,0.45,0.16,0.67
	c3.27,12.74,5.08,25.59,6.52,38.66c-32.15-14.3-68.48-21.35-106.8-19.03c-120.15,7.29-241.3,4.99-361.64,5.42
	c-141.13,0.49-284.37-5.46-420-48.11c-87.36-27.48-169.41-70.97-242.22-126.43C735.7,1911.38,672.81,1358.57,938.64,980.53
	c90.54-128.74,212.15-234.03,347.1-314.99c246.27-147.8,538.56-215.3,825.28-198.4c176.04,10.38,349.84,52.22,512.36,120.42
	C2719.6,628.45,2806.14,680.2,2890.41,736.89z"/>
<linearGradient id="SVGID_00000041294334513375484540000007751390379576468904_" gradientUnits="userSpaceOnUse" x1="1336.1295" y1="3465.8823" x2="2961.1921" y2="1840.8196">
	<stop  offset="0" style="stop-color:#00155F"/>
	<stop  offset="0.5077" style="stop-color:#0068C0"/>
	<stop  offset="1" style="stop-color:#10BAD0"/>
</linearGradient>
<path style="fill:url(#SVGID_00000041294334513375484540000007751390379576468904_);" d="M3244.96,2757.96
	c-112.55,421.08-512.84,753.71-941.31,811.77c-48.46,6.56-97.48,7.84-146.37,8.86c-231.71,4.9-452.39-5.97-673.07-81.45
	c-56.25-19.24-123.04-44.1-191.73-74.91c7.23-7.11,14.52-14.18,21.71-21.33c21.62-21.47,42.43-43.45,65.74-63.14
	c22.5-19.02,46.32-36.44,71.2-52.19c49.84-31.56,104.06-55.94,160.28-73.66c33.31-10.51,67.28-18.69,100.69-28.86
	c50.09-3.43,102.04-6.4,152.5-7.88c75.69,0,149.9-1.48,225.6,1.48c48.98,2.97,97.96,2.97,146.94-1.48
	c35.62-2.97,71.24-5.94,106.86-16.33c13.36-2.97,26.72-4.45,40.07-8.91c32.65-11.88,66.79-20.78,97.96-35.63
	c2.97-1.48,4.45,0,7.42-1.48c100.93-43.05,187.01-103.91,259.74-190.02c56.4-66.8,94.99-138.06,123.19-218.22
	c8.7-25.68,15.6-51.68,20.57-77.91v-0.01c13.71-72.31,12.78-146.39-5.73-220.46c-5.94-22.27-11.87-43.05-20.78-63.83
	c-8.91-17.81-14.84-37.11-25.23-54.93l-4.45-4.45c-20.93-42.69-51.77-77.83-88.25-105.96c-0.01,0-0.01-0.01-0.01-0.01
	c-41.2-50.38-92.32-79.11-149.89-106.75c-62.2-29.87-125.03-58.39-187.97-86.62c-125.91-56.46-252.42-111.74-375.5-174.21
	c-47.55-24.14-94.56-49.36-140.6-76.29c-45.18-26.44-94.63-52.77-133.1-88.61c57.5,34.38,135.36,30.31,199.48,32.41
	c105.87,3.47,211.74-2.89,317.61-2.49c100.32,0.37,200.86,0.7,300.8,10.3c81.54,7.82,156.38,37.45,230.05,73.48
	c138.11,67.53,260.14,168.22,341.6,299.63C3277.57,2262.08,3306.51,2527.64,3244.96,2757.96z"/>
<linearGradient id="SVGID_00000116218201835915488090000007698577740652986507_" gradientUnits="userSpaceOnUse" x1="2670.0232" y1="1333.7509" x2="3138.8401" y2="1333.7509">
	<stop  offset="0" style="stop-color:#006D88"/>
	<stop  offset="1" style="stop-color:#001325"/>
</linearGradient>
<path style="fill:url(#SVGID_00000116218201835915488090000007698577740652986507_);" d="M3138.84,1246.53
	c-4.05,7.21-8.39,14.3-13.02,21.21c-62.44,93.39-170.24,149.34-281.64,153.16c-55.52,1.92-92.85-38.69-137.04-64.66
	c-11.78-6.93-24.25-13.03-37.12-18.59c9.28,0.07,19.16,6.29,27.68,9.8c10.34,4.28,20.69,8.55,31.03,12.81
	c28.42,11.73,57.39,27.24,87.98,32.11c30.28,4.81,61.36,0.27,90.66-7.84c39.58-10.96,79.27-27.46,114.66-48.2
	C3063.65,1311.94,3106.02,1282.22,3138.84,1246.53z"/>
<linearGradient id="SVGID_00000107554274915499741620000017142357276473639840_" gradientUnits="userSpaceOnUse" x1="2103.0261" y1="1156.8447" x2="3182.2144" y2="1156.8447">
	<stop  offset="0" style="stop-color:#33C391"/>
	<stop  offset="1" style="stop-color:#61C961"/>
</linearGradient>
<path style="fill:url(#SVGID_00000107554274915499741620000017142357276473639840_);" d="M3138.84,1246.53
	c-32.82,35.69-75.19,65.41-116.81,89.8c-35.38,20.74-75.07,37.25-114.66,48.2c-29.3,8.11-60.38,12.65-90.66,7.84
	c-30.59-4.87-59.56-20.38-87.98-32.11c-10.34-4.26-20.69-8.54-31.03-12.81c-8.52-3.5-18.4-9.72-27.68-9.8
	c-35.78-15.45-74.73-26.57-111.18-38.82c-113.9-38.26-230.57-68.23-348.8-89.62c-36.75-6.65-72.09-14.35-107.01-20.01
	c19.49-12.38,39.2-24.39,58.97-36.31c52.17-31.47,105.76-61.84,154.74-98.12c49.66-36.79,97.59-75.93,143.54-117.26
	c1.11-0.99,10.42,1.43,12.19,1.68h0.01c1.72,0.22,3.44,0.46,5.17,0.68c2.12,0.28,4.24,0.55,6.37,0.82c0.86,0.12,1.74,0.22,2.6,0.33
	c9.47,1.19,18.97,2.29,28.47,3.28c5.7,0.59,11.37,1.34,17.04,2.12c6.87,0.95,13.73,1.96,20.6,2.84c5.54,0.71,11.09,1.34,16.67,1.8
	c50.2,4.08,100.07,9.07,150.39,10.79c3.35,0.1,6.72,0.21,10.08,0.3c62.65,1.59,125-0.13,188.52-4.81
	c46.6-3.43,94.34-9.46,140.39-18.42c18.92-3.68,37.68-8.12,56.21-13.43l17.07-6.12c22.44,26.23,38.69,56.89,45.24,96.76
	C3190.21,1094.74,3177.84,1177.04,3138.84,1246.53z"/>
<linearGradient id="SVGID_00000020390254334245868170000018312103307704318869_" gradientUnits="userSpaceOnUse" x1="2243.8032" y1="874.23" x2="2832.1287" y2="874.23">
	<stop  offset="0" style="stop-color:#000C2C"/>
	<stop  offset="1" style="stop-color:#004857"/>
</linearGradient>
<path style="fill:url(#SVGID_00000020390254334245868170000018312103307704318869_);" d="M2832.13,799.21
	c-24.71,21.3-51.93,39.9-79.48,56.97c-39.17,24.27-80.53,44.85-122.88,62.96c-23.87,10.21-48.04,19.64-72.43,28.56l-4.63,1.54
	c-6.87-0.88-13.73-1.89-20.6-2.84c-1.96-0.53-3.87-0.96-5.57-0.96c-3.83-0.37-7.66-0.76-11.47-1.16c-9.5-0.99-19-2.09-28.47-3.28
	c-0.86-0.1-1.74-0.21-2.6-0.33c-2.12-0.27-4.24-0.53-6.37-0.82c-1.72-0.22-3.44-0.46-5.17-0.68h-0.01
	c-1.77-0.25-11.07-2.67-12.19-1.68c-67.98-9.55-134.22-22.76-203.86-35.11c-4.22-0.73-8.42-1.44-12.62-2.14h7.35
	c27.67-1.29,55.23-3.1,83.03-4.07c89.66-3.12,179.59-8.21,268.08-23.74C2683.57,858.19,2756.97,831.87,2832.13,799.21z"/>
<path class="st14" d="M2890.41,736.89c-4.53,5.58-9.07,11.18-13.6,16.76c-13.42,16.55-28.51,31.63-44.69,45.56
	c-75.16,32.66-148.55,58.98-229.87,73.24c-88.49,15.53-178.42,20.62-268.08,23.74c-27.8,0.96-55.36,2.78-83.03,4.07h-7.35
	c-0.68-0.12-1.37-0.22-2.05-0.33c-3.09-0.5-6.16-0.99-9.23-1.47c-2.78-0.43-5.55-0.85-8.34-1.25c-2.05-0.31-4.1-0.61-6.14-0.89
	c-5.27-0.76-10.55-1.47-15.85-2.14c-2.18-0.3-4.38-0.56-6.56-0.82c-0.79-0.1-1.57-0.21-2.36-0.3c-2.31-0.28-4.63-0.55-6.95-0.8
	c-5.31-0.61-10.61-1.17-15.91-1.69c-2.43-0.24-4.85-0.48-7.27-0.68c-0.37-0.03-0.73-0.07-1.1-0.09c-2.52-0.25-5.05-0.46-7.55-0.65
	c-2.57-0.22-5.14-0.43-7.7-0.62c-5.61-0.42-11.24-0.79-16.86-1.1c-2.3-0.15-4.6-0.28-6.9-0.37c-0.28-0.03-0.56-0.04-0.85-0.04
	c-2.52-0.15-5.03-0.25-7.55-0.36c-0.01,0-0.01,0-0.03,0h-0.1c-3.13-0.15-6.26-0.25-9.38-0.34c-2.88-0.1-5.77-0.18-8.65-0.24
	c-40.06-0.89-79.97,0.82-120.06,5.49c-0.5-0.04-1.02-0.09-1.53-0.13c-155.5-14.25-315.63,18.3-459.26,78.11
	c-83.99,34.96-157.96,83.25-234.31,131.76c1.48-1.48,1.48-4.45,2.97-5.94c32.65-37.11,66.79-65.32,106.86-95.01
	c16.33-11.88,29.68-22.27,46.01-29.69l4.45-4.45c60.85-34.14,118.74-59.38,187.01-75.71c114.28-26.72,225.6-28.21,339.88-31.17
	c127.64-1.48,256.77,1.48,384.41-1.48c62.13-1.59,124.23-6.21,185.79-14.74c61.48-8.51,122.45-20.92,182.07-38.17
	c56.15-16.24,112.67-35.52,163.49-64.55C2886.3,739.24,2888.36,738.06,2890.41,736.89z"/>
<linearGradient id="SVGID_00000125600022378541841150000017409231584131792266_" gradientUnits="userSpaceOnUse" x1="2198.241" y1="1201.1409" x2="2198.241" y2="2177">
	<stop  offset="0.2577" style="stop-color:#001737"/>
	<stop  offset="0.5954" style="stop-color:#009BAA"/>
	<stop  offset="0.8479" style="stop-color:#006E95"/>
	<stop  offset="1" style="stop-color:#000A2D"/>
</linearGradient>
<path style="fill:url(#SVGID_00000125600022378541841150000017409231584131792266_);" d="M2748.48,2177
	c-28.21-21.72-59.8-39.26-92.81-52.86c-2.97-1.48-4.45,0-7.42-1.48c-56.34-25.7-114.18-43.72-173.03-56.92l-34.76-9.92
	c-218.92-52.11-442.86-118.46-610.19-275.88c-72.3-68.02-144.29-154.22-172.47-251.13c-36.63-126.06,32.03-278.8,161.65-319.24
	c1.86-0.58,3.71-1.13,5.58-1.63c0.68-0.21,1.37-0.39,2.05-0.56c0.61-0.18,1.23-0.33,1.84-0.49c0.01,0,0.01,0,0.03,0
	c0.01,0,0.01,0,0.03,0c0.19-0.06,0.39-0.1,0.58-0.16c0.88-0.21,1.77-0.43,2.67-0.64c0.85-0.21,1.71-0.4,2.55-0.58
	c0.86-0.19,1.72-0.39,2.6-0.56c0.67-0.13,1.34-0.27,2-0.39c0.01,0,0.03-0.01,0.04-0.01c0.62-0.12,1.25-0.25,1.87-0.36
	c1.28-0.24,2.55-0.46,3.84-0.67c0.73-0.12,1.45-0.24,2.17-0.34c2.92-0.45,5.86-0.82,8.8-1.1c0.64-0.07,1.26-0.13,1.9-0.19
	c0.95-0.09,1.9-0.16,2.85-0.24c11.68-0.86,23.44-0.62,35.12,0.79c-2.29,0.85-4.57,1.71-6.84,2.58
	c-78.34,30.31-151.52,85.34-188.18,161.84c-36.26,75.68-30.06,190.74,30.01,253.51c9.25,9.66,19.47,17.62,30.43,24.17h0.01
	c38.47,35.84,87.92,62.17,133.1,88.61c46.04,26.93,93.05,52.15,140.6,76.29c123.09,62.47,249.6,117.75,375.5,174.21
	c62.95,28.24,125.77,56.75,187.97,86.62C2656.16,2097.89,2707.28,2126.62,2748.48,2177z"/>
<path class="st16" d="M1976.39,891.58c-21.46,2.49-42.98,5.85-64.61,10.09c-0.09,0.01-0.16,0.03-0.25,0.06
	c-10.18,2-20.39,4.2-30.62,6.61c-0.67,0-1.65,0.61-2.64,1.26c-1.22,0.82-2.48,1.71-3.29,1.71c-3.34,0.52-6.59,1.16-9.77,1.91h-0.01
	c-3.53,0.83-6.99,1.8-10.39,2.84c-0.01,0-0.01,0-0.03,0c-66.4,5.82-130.94,28.71-186.7,65.3c-9.1,5.95-17.93,12.28-26.57,18.87
	l-6.47-1.04c-22.35-2.57-46.01-0.42-68.16,2.91c-23.23,3.47-46.07,9.25-68.38,16.51c-44.69,14.53-89.32,33.95-129.42,58.52
	c-37.24,22.82-69.4,52.98-96.81,86.83c-27.9,34.44-51.03,72.47-69.4,112.78c-18.45,40.44-32.28,82.79-44.23,125.54l-2.92,12.31
	c0.28-3.47,0.58-6.95,0.91-10.42c8.91-83.13,31.17-161.81,74.21-236.03l4.45-4.45c11.87-23.75,28.2-43.05,46.01-62.35
	c76.35-48.51,150.32-96.8,234.31-131.76c121.08-50.41,253.89-81.47,385.76-81.44c4.94,0,9.9,0.04,14.84,0.15
	c1.14,0,2.29,0.03,3.43,0.06c3.07,0.06,6.14,0.15,9.22,0.25c1.42,0.04,2.85,0.1,4.27,0.16c1.91,0.06,3.83,0.15,5.74,0.24
	c2.8,0.12,5.61,0.27,8.42,0.43c2.91,0.16,5.82,0.34,8.73,0.53c0.19,0.01,0.37,0.01,0.56,0.03c2.76,0.19,5.54,0.4,8.3,0.62
	c0.31,0.01,0.62,0.04,0.93,0.07c2.95,0.24,5.91,0.49,8.85,0.76c0.07,0,0.13,0,0.21,0.01
	C1975.37,891.49,1975.89,891.53,1976.39,891.58z"/>
<path class="st17" d="M1655.67,3123.97c-7.24,2.75-14.28,6.74-22.62,8.14c-0.71,0.12-1.44,0.24-2.15,0.36
	c-5.8,0.97-11.62,1.92-17.44,2.85c-14.14,2.27-28.3,4.44-42.48,6.58c-26.63,4.02-53.31,7.91-79.94,12.07
	c-0.22,0.03-0.46,0.07-0.71,0.12c-0.5,0.07-1.02,0.16-1.53,0.24c-0.09,0.01-0.16,0.03-0.25,0.04c-28.26,4.41-56.47,9.13-84.54,14.61
	c-0.45,0.07-0.89,0.16-1.34,0.25c-15.12,2.95-30.19,6.15-45.21,9.62c-0.85,0.19-1.68,0.39-2.52,0.59c-0.03,0-0.06,0-0.09,0.02
	c-1.44,0.34-2.88,0.67-4.3,1.01c-0.1,0.03-0.21,0.06-0.31,0.07c-0.5,0.12-0.99,0.24-1.48,0.36c-2.75,0.65-5.49,1.32-8.24,2
	c-3.34,0.82-6.68,1.66-10.02,2.51c0,0-0.01,0-0.01,0.01c-17.93,4.56-35.75,9.5-53.52,14.68c-4.85,1.41-9.69,2.85-14.53,4.29
	c-53.71,16.05-106.95,33.89-160.65,49.75c3.41-1.01,30.11-16.09,20.21-10.94c24.45-13.33,49.11-27.03,74.7-39.83
	c29.68-14.84,59.37-28.21,90.54-41.57c68.27-28.21,139.52-47.5,210.76-68.29C1551.08,3102.8,1603.29,3113.58,1655.67,3123.97z"/>
<path class="st18" d="M2231.56,2343.47c-25.66-14.38-51.7-27.54-78.05-40.62c-42.61-21.12-85.73-41.19-129.17-60.54
	c-58.95-26.25-118.48-51.17-178.19-75.66c-60.26-24.72-120.68-49-180.91-73.78c-59.26-24.38-119.4-48.01-176.49-77.24
	c-55.14-28.23-107.14-69.55-132.97-127.59c69.31,45.89,148.38,74.71,232.75,93.58c118.71,28.4,234.42,45.32,350.61,58.28
	c18.36,11.91,37.25,23.01,55.48,35.11c16.98,11.28,33.8,22.76,50.26,34.72h0.01c20.7,15.05,40.85,30.85,60.04,47.93
	c1.2,1.07,2.39,2.14,3.58,3.21c41.34,37.31,78.66,80.44,103.45,130.59C2220.16,2308.1,2226.9,2325.52,2231.56,2343.47z"/>
<path class="st1" d="M1121.27,3243.58c-6.5,3.56-13,7.08-19.49,10.55"/>
<linearGradient id="SVGID_00000043453862302291417740000006473128975406365587_" gradientUnits="userSpaceOnUse" x1="1658.1101" y1="1124.8477" x2="2193.2344" y2="815.8935">
	<stop  offset="0" style="stop-color:#001636"/>
	<stop  offset="0.9948" style="stop-color:#00547A"/>
</linearGradient>
<path style="fill:url(#SVGID_00000043453862302291417740000006473128975406365587_);" d="M2241.76,899.93l-9.5,0.33
	c-104.9,5.12-209.93,14.76-312.5,37.39c-54.13,11.95-107.52,27.55-159.14,47.77c-48.86,19.15-92.72,47.61-140.32,68.32l-2.57,1.17
	c8.28-3.79,16.74-14.3,23.96-20.32c0.18-0.16,0.34-0.3,0.5-0.43c0.59-0.49,1.19-0.96,1.8-1.45c1.2-0.96,2.4-1.93,3.61-2.89
	c0.89-0.71,1.8-1.44,2.7-2.15c1.68-1.32,3.35-2.64,5.05-3.96c11.24-8.77,22.74-17.29,34.51-25.56c1.4-0.98,2.81-1.97,4.23-2.95
	c0.98-0.68,1.96-1.37,2.95-2.05c1.83-1.25,3.67-2.51,5.51-3.74c0.46-0.33,0.93-0.64,1.4-0.94c1.84-1.26,3.68-2.49,5.52-3.71
	c0.5-0.34,1.01-0.68,1.51-0.99c2-1.34,4.01-2.66,6.01-3.95c2.08-1.37,4.16-2.72,6.25-4.04c0.45-0.3,0.89-0.58,1.34-0.86
	c1.14-0.73,2.29-1.44,3.43-2.17c0.21-0.13,0.4-0.27,0.61-0.37c29.02-18.04,60.04-32.57,92.12-44.48c6.29-2.35,12.62-4.57,18.98-6.71
	c0.73-0.25,1.45-0.5,2.18-0.74c7.72-2.57,15.48-4.97,23.3-7.21c4.35-1.26,8.7-2.46,13.08-3.62c11.09-2.94,22.26-5.58,33.51-7.93
	c20.84-4.36,41.9-7.73,63.08-10.23c40.34-4.75,81.13-6.32,121.59-5.36c2.88,0.06,5.77,0.13,8.65,0.24c3.13,0.09,6.26,0.21,9.38,0.34
	h0.1c0.01,0,0.01,0,0.03,0c2.52,0.1,5.05,0.22,7.55,0.36c0.28,0,0.56,0.01,0.85,0.04c2.3,0.1,4.6,0.22,6.9,0.37
	c5.62,0.31,11.25,0.68,16.86,1.1c2.57,0.21,5.14,0.4,7.7,0.62c2.52,0.21,5.03,0.42,7.55,0.65c0.37,0.01,0.73,0.06,1.1,0.09
	c2.42,0.22,4.85,0.45,7.27,0.68c5.31,0.52,10.61,1.08,15.91,1.69c2.32,0.25,4.63,0.52,6.95,0.8c0.79,0.09,1.57,0.19,2.36,0.3
	c2.2,0.25,4.38,0.53,6.56,0.82c5.3,0.67,10.58,1.38,15.85,2.14c2.05,0.28,4.1,0.58,6.14,0.89c2.79,0.4,5.57,0.82,8.34,1.25
	C2235.6,898.94,2238.67,899.43,2241.76,899.93z"/>
<path class="st20" d="M2406.65,2587.24c0.15,44.25-9.65,81.51-35.8,117.38c-23.69,32.48-53.03,60.83-86.35,83.32
	c-50.92,34.37-105.99,48.66-165.65,58.88c16.79-4.04,33.32-9.1,49.54-15.31c90.71-34.68,169.63-109.27,191.92-203.81
	c25.34-107.36-31.79-204.74-122.08-244.91c-1.44-13.06-3.25-25.92-6.52-38.66c48.21,19.86,91.43,51.63,125.03,91.49
	C2393.13,2478.8,2406.47,2531.44,2406.65,2587.24z"/>
<path class="st21" d="M1854.78,916.06c-5.09,1.56-10.08,3.31-15.06,5.12c-6,2.17-11.99,4.39-18.17,6.46
	c-0.27,0.09-0.55,0.16-0.82,0.25c-29.33,8.91-54.37,22.16-82.3,38.34c-3.29,2.02-6.56,4.05-9.83,6.13c-0.21,0.1-0.4,0.24-0.61,0.37
	c-1.59,0.99-3.18,2-4.76,3.03c-2.09,1.32-4.17,2.67-6.25,4.04c-2,1.29-4.01,2.6-6.01,3.95c-0.5,0.31-1.01,0.65-1.51,0.99
	c-1.84,1.22-3.68,2.45-5.52,3.71c-0.46,0.3-0.94,0.61-1.4,0.94c-1.84,1.23-3.68,2.48-5.51,3.74c-0.99,0.68-1.97,1.37-2.95,2.05
	c-1.41,0.98-2.82,1.97-4.23,2.95c-11.77,8.27-23.27,16.79-34.51,25.56c-1.69,1.31-3.37,2.63-5.05,3.96
	c-0.91,0.71-1.81,1.44-2.7,2.15c-1.2,0.96-2.4,1.93-3.61,2.89c-0.77,0.62-1.54,1.25-2.3,1.89c-8.15,6.62-16.13,13.4-23.96,20.32
	c-74.52,65.88-134.47,144.59-173.18,237.91c-1.48,2.97,0,4.45-1.48,7.42c-14.68,34.25-23.78,69.9-28.04,106.14
	c0-40.78-0.39-74.74,15.01-113.43c21.91-55.06,45.92-109.82,79.98-158.32c23.87-34.01,52.39-64.53,82.77-92.87
	c15.61-14.56,31.76-28.59,48.71-41.54c8.64-6.59,17.47-12.92,26.57-18.87C1723.84,944.77,1788.37,921.87,1854.78,916.06z"/>
<path class="st21" d="M1991.87,1181.85c-25.96,1.65-52.29,6.19-79.38,14.89c-5.51,1.77-11.01,3.67-16.5,5.69h-0.01
	c-11.68-1.41-23.44-1.65-35.12-0.79c-0.95,0.07-1.9,0.15-2.85,0.24c-0.64,0.06-1.26,0.12-1.9,0.19c-2.94,0.28-5.88,0.65-8.8,1.1
	c-0.71,0.1-1.44,0.22-2.17,0.34c-1.29,0.21-2.57,0.43-3.84,0.67c-0.58,0.09-1.16,0.21-1.74,0.31c3.47-1.11,6.92-2.38,10.17-3.24
	c7.3-1.96,14.65-3.76,22.04-5.4c14.14-3.18,28.42-5.79,42.77-7.85C1940.27,1184.3,1966.03,1183.41,1991.87,1181.85z"/>
<path class="st22" d="M2513.54,2236.8c-33.31-20.11-65.53-42.96-100.3-60.48c-34.18-17.22-70.54-29.9-107.62-39.29
	c-43.43-11.01-87.84-17.61-132.32-22.56c-42.89-4.78-85.22-4.72-128.41-4.72h-0.01c-16.46-11.97-33.28-23.44-50.26-34.72
	c-18.23-12.1-37.12-23.2-55.48-35.11c40.03,4.47,80.13,8.48,120.43,12.31c42.63,4.05,85.48,7.93,128.71,11.99
	c1.93,0.18,3.87,0.37,5.8,0.55C2321.35,2076.75,2434.55,2140.54,2513.54,2236.8z"/>
<path class="st23" d="M2611.25,2422.76c-54.07-58.8-108.04-119.18-174.02-165c-93.28-64.78-215.69-98.57-328.72-96.88
	c-1.19-1.07-2.37-2.14-3.58-3.21c-19.19-17.09-39.33-32.88-60.04-47.93c43.19,0,85.52-0.06,128.41,4.72
	c44.48,4.96,88.89,11.55,132.32,22.56c37.08,9.4,73.44,22.07,107.62,39.29c34.78,17.52,67,40.36,100.3,60.48
	c0,0.01,0.01,0.01,0.01,0.01c1.44,1.77,2.88,3.53,4.3,5.33c0.04,0.04,0.09,0.1,0.13,0.16c1.42,1.78,2.85,3.59,4.24,5.4
	c0.88,1.11,1.75,2.26,2.6,3.38c0.8,1.04,1.59,2.09,2.39,3.15c2.27,3.03,4.51,6.1,6.71,9.19c0.8,1.11,1.59,2.23,2.36,3.34
	c0.33,0.46,0.65,0.91,0.96,1.37c0.76,1.1,1.51,2.18,2.26,3.28c3.83,5.58,7.55,11.25,11.15,17.01c0.62,0.98,1.23,1.96,1.83,2.94
	c0.76,1.22,1.51,2.45,2.26,3.68c0.62,1.02,1.25,2.06,1.86,3.1c0.68,1.13,1.37,2.27,2.02,3.43c0.52,0.88,1.02,1.75,1.53,2.63
	c0.7,1.19,1.4,2.39,2.06,3.61c0.64,1.11,1.28,2.24,1.9,3.37c0.95,1.69,1.87,3.4,2.79,5.11c0.13,0.22,0.27,0.46,0.39,0.71
	c0.86,1.59,1.71,3.18,2.54,4.78c0.5,0.95,1.01,1.9,1.5,2.85c1.1,2.12,2.18,4.26,3.25,6.4
	C2589.34,2360.63,2601.87,2391.06,2611.25,2422.76z"/>
<path class="st24" d="M2892.94,2626.65l-0.15-2.08c-4.1-53.6-5.58-105.56-14.49-159c-4.45-22.27-10.39-43.05-17.81-65.32
	c-10.39-26.72-22.26-50.47-37.11-75.71c-41.56-66.8-94.99-115.79-163.26-151.42c-4.45-1.48-7.42-5.94-10.39-7.42
	c-102.41-50.47-210.76-80.16-325.04-90.55c-4.45,0-10.39-2.97-14.84-2.97c-41.56-2.97-81.63-7.42-121.57-7.97
	c-43.24-4.07-86.08-7.94-128.71-11.99l3.1-34.75c138.82,13.27,278.29,18.2,412.55,48.28c58.85,13.2,116.69,31.22,173.03,56.92
	c2.97,1.48,4.45,0,7.42,1.48c33.01,13.6,64.59,31.14,92.81,52.86c0,0,0,0.01,0.01,0.01c36.48,28.13,67.32,63.27,88.25,105.96
	l4.45,4.45c10.39,17.81,16.33,37.11,25.23,54.93c8.91,20.78,14.84,41.57,20.78,63.83
	C2905.72,2480.27,2906.65,2554.34,2892.94,2626.65z"/>
</svg>
